<?xml version="1.0" standalone="no"?>
<!DOCTYPE svg PUBLIC "-//W3C//DTD SVG 20010904//EN"
 "http://www.w3.org/TR/2001/REC-SVG-20010904/DTD/svg10.dtd">
<svg version="1.0" xmlns="http://www.w3.org/2000/svg"
 width="700.000000pt" height="700.000000pt" viewBox="0 0 700.000000 700.000000"
 preserveAspectRatio="xMidYMid meet">
<metadata>
Created by potrace 1.14, written by Peter Selinger 2001-2017
</metadata>
<g transform="translate(0.000000,700.000000) scale(0.100000,-0.100000)"
fill="#000000" stroke="none">
<path d="M3298 6995 c-1 -1 -41 -5 -88 -8 -122 -9 -316 -37 -435 -64 -11 -2
-31 -6 -45 -9 -138 -27 -485 -140 -583 -190 -16 -8 -33 -14 -38 -14 -16 0
-302 -146 -386 -197 -295 -178 -500 -339 -729 -573 -114 -117 -134 -140 -234
-265 -287 -361 -493 -763 -625 -1218 -34 -115 -43 -150 -50 -192 -2 -11 -10
-56 -19 -100 -18 -89 -22 -117 -32 -184 -3 -25 -8 -57 -10 -71 -28 -174 -25
-641 5 -856 20 -140 22 -148 66 -365 18 -89 114 -383 165 -509 55 -133 149
-325 213 -435 42 -72 195 -306 207 -315 3 -3 17 -21 30 -40 111 -161 399 -459
585 -606 28 -21 52 -41 55 -44 25 -26 295 -210 385 -262 91 -52 300 -156 407
-202 99 -42 376 -139 429 -150 13 -3 60 -14 104 -26 44 -11 94 -22 110 -25 17
-3 64 -12 106 -20 42 -8 98 -17 125 -20 27 -3 63 -8 79 -10 201 -25 667 -26
800 -1 11 2 45 7 75 10 57 7 63 8 170 26 440 77 913 271 1320 543 570 380
1033 956 1291 1606 31 77 109 298 108 306 0 3 7 31 16 63 20 65 16 50 50 211
30 143 52 289 62 411 14 168 6 657 -12 713 -2 6 -6 35 -9 62 -5 44 -37 226
-50 280 -27 118 -40 167 -71 270 -215 708 -666 1345 -1265 1787 -375 276 -774
465 -1231 582 -74 19 -152 37 -174 40 -36 6 -71 12 -129 22 -25 4 -157 22
-216 29 -49 6 -526 15 -532 10z"/>
</g>
</svg>
