<svg width="16" height="18" viewBox="0 0 16 18" fill="none" xmlns="http://www.w3.org/2000/svg">
<path d="M15.308 4.02333L14.9106 2.832C14.7592 2.37827 14.3361 2.07339 13.8579 2.07339H10.5177V0.985886C10.5177 0.442337 10.0758 0 9.53235 0H6.47348C5.93021 0 5.48815 0.442337 5.48815 0.985886V2.07339H2.14803C1.66971 2.07339 1.2466 2.37827 1.09526 2.832L0.697834 4.02333C0.607334 4.29456 0.653202 4.59489 0.820332 4.82684C0.987461 5.05879 1.25786 5.19736 1.54378 5.19736H1.9592L2.87354 16.5038C2.94152 17.3427 3.65343 18 4.49457 18H11.6968C12.5378 18 13.2499 17.3427 13.3177 16.5037L14.232 5.19736H14.4621C14.748 5.19736 15.0184 5.05879 15.1855 4.82698C15.3526 4.59503 15.3985 4.29456 15.308 4.02333ZM6.54284 1.05469H9.463V2.07339H6.54284V1.05469ZM12.2664 16.4187C12.2425 16.7141 11.9923 16.9453 11.6968 16.9453H4.49457C4.19904 16.9453 3.94883 16.7141 3.92493 16.4187L3.01732 5.19736H13.1739L12.2664 16.4187ZM1.76996 4.14267L2.09584 3.16571C2.10326 3.14319 2.12427 3.12808 2.14803 3.12808H13.8579C13.8817 3.12808 13.9026 3.14319 13.9101 3.16571L14.236 4.14267H1.76996Z" fill="#F6F7FB"/>
<path d="M10.5845 16.3811C10.5938 16.3816 10.6031 16.3818 10.6124 16.3818C10.891 16.3818 11.1239 16.1634 11.1385 15.8819L11.6337 6.37568C11.6488 6.08482 11.4252 5.83667 11.1345 5.82156C10.843 5.80604 10.5956 6.02989 10.5804 6.32075L10.0853 15.827C10.0702 16.1178 10.2936 16.366 10.5845 16.3811Z" fill="#F6F7FB"/>
<path d="M4.89105 15.8835C4.90643 16.1646 5.13906 16.3821 5.41715 16.3821C5.42677 16.3821 5.43665 16.3819 5.4464 16.3813C5.73713 16.3655 5.96001 16.117 5.94422 15.8261L5.42553 6.31991C5.40974 6.02905 5.16117 5.80616 4.87031 5.82209C4.57959 5.83789 4.3567 6.08645 4.37249 6.37731L4.89105 15.8835Z" fill="#F6F7FB"/>
<path d="M8.00891 16.3822C8.30019 16.3822 8.53625 16.1461 8.53625 15.8548V6.34863C8.53625 6.05736 8.30019 5.82129 8.00891 5.82129C7.71764 5.82129 7.48157 6.05736 7.48157 6.34863V15.8548C7.48157 16.1461 7.71764 16.3822 8.00891 16.3822Z" fill="#F6F7FB"/>
</svg>
